<?xml version="1.0" standalone="no"?>
<!DOCTYPE svg PUBLIC "-//W3C//DTD SVG 20010904//EN"
 "http://www.w3.org/TR/2001/REC-SVG-20010904/DTD/svg10.dtd">
<svg version="1.0" xmlns="http://www.w3.org/2000/svg"
 width="260.000000pt" height="260.000000pt" viewBox="0 0 260.000000 260.000000"
 preserveAspectRatio="xMidYMid meet">
<metadata>
Created by potrace 1.11, written by Peter Selinger 2001-2013
</metadata>
<g transform="translate(0.000000,260.000000) scale(0.100000,-0.100000)"
fill="#000000" stroke="none">
<path d="M564 2576 c8 -14 24 -40 35 -59 57 -102 255 -444 276 -477 14 -22 25
-42 25 -45 0 -3 11 -22 23 -43 13 -20 36 -59 51 -86 15 -26 94 -165 177 -308
l150 -259 -82 -142 c-45 -78 -90 -155 -99 -172 -10 -16 -35 -59 -55 -95 -21
-36 -48 -83 -60 -105 -12 -22 -60 -105 -107 -185 -46 -80 -131 -226 -188 -325
-57 -99 -116 -201 -131 -227 l-29 -48 374 0 c281 1 377 4 384 13 5 7 20 30 32
52 17 31 285 495 416 722 103 178 193 333 209 362 11 20 35 62 53 93 l33 58
-56 97 c-31 54 -60 105 -65 113 -22 36 -168 289 -193 335 -71 124 -383 665
-410 708 l-29 47 -375 0 -375 0 16 -24z"/>
</g>
</svg>
